<svg xmlns="http://www.w3.org/2000/svg" viewBox="0 0 1000 130" preserveAspectRatio="xMidYMid meet"><defs><clipPath id="cp-past"><rect x="0" y="0" width="287.6663254033312" height="130"/></clipPath><clipPath id="cp-future"><rect x="287.6663254033312" y="0" width="1000" height="130"/></clipPath></defs><line x1="80" y1="62" x2="920" y2="62" stroke-width="5" stroke-linecap="round" clip-path="url(#cp-past)"/><line x1="80" y1="62" x2="920" y2="62" stroke-width="5" stroke-linecap="round" clip-path="url(#cp-future)"/><circle cx="80" cy="62" r="5"/><circle cx="920" cy="62" r="5"/><text x="80" y="88" text-anchor="middle">2 LUG</text><text x="920" y="88" text-anchor="middle">27 AGO</text><g transform="translate(80, 10)"><g><circle cx="0" cy="20" r="19" fill="#e0a8b8" stroke="rgba(255,255,255,0.85)" stroke-width="1.5"/><circle cx="-6.5" cy="16" r="2.8" fill="white"/><circle cx="6.5" cy="16" r="2.8" fill="white"/><path d="M-6 25 Q0 31 6 25" stroke="white" stroke-width="2" fill="none" stroke-linecap="round"/></g></g><g transform="translate(287.6663254033312, 10)"><g><circle cx="0" cy="20" r="19" fill="#b06878" stroke="rgba(255,255,255,0.85)" stroke-width="1.5"/><circle cx="-6.5" cy="16" r="2.8" fill="white"/><circle cx="6.5" cy="16" r="2.8" fill="white"/><path d="M-6 25 Q0 31 6 25" stroke="white" stroke-width="2" fill="none" stroke-linecap="round"/></g></g></svg>